<?xml version="1.0" standalone="no"?>
<!DOCTYPE svg PUBLIC "-//W3C//DTD SVG 20010904//EN"
 "http://www.w3.org/TR/2001/REC-SVG-20010904/DTD/svg10.dtd">
<svg version="1.0" xmlns="http://www.w3.org/2000/svg"
 width="512.000000pt" height="512.000000pt" viewBox="0 0 512.000000 512.000000"
 preserveAspectRatio="xMidYMid meet">

<g transform="translate(0.000000,512.000000) scale(0.100000,-0.100000)"
fill="#000000" stroke="none">
<path d="M1933 4154 c-18 -8 -16 -31 3 -38 9 -3 28 -6 43 -6 15 0 32 -5 39
-12 14 -14 16 -146 3 -182 -16 -40 -160 -225 -205 -261 -73 -60 -197 -159
-234 -188 -21 -16 -113 -78 -207 -138 -159 -103 -226 -140 -337 -187 -25 -11
-51 -30 -57 -41 -10 -19 -9 -21 12 -21 12 0 27 4 33 9 5 5 68 35 139 67 148
67 487 249 557 301 26 19 64 39 83 44 48 13 297 261 345 344 32 54 35 66 35
140 0 90 -16 124 -68 151 -30 16 -162 29 -184 18z"/>
<path d="M1004 3948 c4 -13 11 -52 15 -88 5 -36 20 -96 35 -134 41 -107 125
-261 163 -298 31 -30 39 -33 95 -33 56 1 63 3 92 35 24 27 35 51 44 104 13 71
46 147 88 203 27 36 30 53 10 53 -8 0 -36 -28 -62 -62 -42 -56 -63 -95 -102
-190 -15 -36 -33 -35 -72 5 -35 35 -156 226 -202 318 -39 79 -122 148 -104 87z"/>
<path d="M4068 3820 c-26 -26 -29 -36 -23 -63 3 -18 10 -192 15 -387 10 -413
14 -476 40 -588 32 -134 33 -130 -74 -235 -147 -144 -178 -169 -192 -154 -6 6
-24 49 -40 94 -28 82 -28 83 -11 116 21 39 14 65 -20 74 -21 5 -31 -1 -57 -30
-17 -20 -42 -41 -56 -46 -14 -5 -101 -75 -193 -155 -92 -80 -174 -146 -182
-146 -24 0 -18 73 10 140 20 49 25 76 25 150 l0 90 -45 11 c-25 6 -50 19 -55
29 -5 9 -13 84 -19 166 -5 83 -11 157 -13 165 -2 11 12 14 72 14 79 1 198 33
220 61 17 20 -11 60 -47 67 -43 8 -318 -29 -376 -52 -38 -15 -42 -31 -27 -126
16 -104 10 -131 -35 -150 -20 -8 -57 -36 -83 -63 -26 -26 -73 -67 -105 -91
-32 -23 -63 -53 -69 -65 -5 -13 -32 -40 -59 -60 -52 -40 -109 -118 -109 -149
0 -29 111 71 141 128 19 35 39 54 89 83 36 20 97 69 135 108 39 39 81 74 94
79 22 7 23 5 16 -25 -4 -17 -2 -60 5 -96 19 -101 18 -102 -132 -178 -158 -81
-183 -98 -204 -139 -15 -29 -15 -31 2 -44 10 -7 26 -13 36 -13 24 0 43 -32 63
-105 9 -33 25 -86 37 -117 11 -33 18 -68 14 -81 -3 -14 -42 -71 -86 -127 -113
-146 -109 -188 17 -170 72 10 97 22 119 56 10 14 20 21 24 17 4 -4 24 -57 44
-117 20 -60 50 -134 66 -166 16 -32 26 -60 23 -64 -4 -3 -17 -6 -30 -6 -29 0
-74 -22 -94 -46 -13 -16 -11 -17 35 -11 196 27 382 39 516 33 511 -22 616 -20
649 13 23 23 58 154 71 262 6 46 19 136 30 199 40 240 62 456 55 546 -9 102
-8 104 82 104 69 0 217 31 264 56 86 44 231 147 249 176 26 42 25 92 -1 129
-35 50 -51 53 -142 29 -45 -12 -92 -28 -103 -35 -12 -8 -71 -36 -132 -64 -61
-27 -136 -66 -167 -85 -30 -20 -57 -36 -59 -36 -19 0 -22 86 -10 354 9 207 10
314 3 345 -6 25 -14 96 -18 156 -8 117 -35 199 -80 244 -31 31 -76 27 -113 -9z
m632 -1024 c0 -10 -128 -94 -159 -104 -19 -7 -66 -12 -105 -11 l-71 0 165 59
c91 32 166 59 168 59 1 1 2 -1 2 -3z m-582 -396 c4 -124 -13 -295 -52 -497
-19 -98 -37 -202 -41 -230 -10 -78 -31 -99 -113 -112 -37 -6 -164 -15 -282
-21 -118 -5 -248 -15 -289 -22 -90 -15 -102 -6 -91 69 4 27 8 138 8 248 0 199
9 270 38 327 21 41 288 308 307 308 21 0 30 -18 57 -123 28 -105 48 -127 120
-127 62 0 84 18 161 131 72 105 111 141 148 137 25 -3 26 -5 29 -88z m-1045
19 c3 -12 0 -39 -7 -60 -14 -41 -94 -169 -105 -169 -3 0 -13 11 -21 24 -8 13
-27 39 -42 58 -14 18 -30 46 -33 61 -6 23 -4 29 13 34 11 2 49 20 84 39 75 39
103 43 111 13z"/>
<path d="M2435 3300 c-173 -46 -398 -118 -680 -219 -313 -113 -420 -157 -543
-222 -52 -27 -151 -69 -220 -93 -70 -24 -159 -58 -198 -75 -39 -17 -111 -42
-160 -56 -127 -37 -463 -95 -550 -95 -58 0 -74 -3 -74 -14 0 -46 72 -62 230
-52 302 18 640 91 800 171 37 19 105 45 151 58 47 14 108 36 137 51 78 40 148
66 246 92 51 14 130 46 183 75 64 34 125 58 195 75 56 14 115 32 131 41 16 8
32 12 35 9 3 -4 -120 -131 -274 -284 -258 -255 -533 -554 -563 -611 -18 -33
-5 -88 25 -107 22 -15 35 -15 122 -4 143 18 224 36 275 59 42 19 137 29 137
15 0 -4 -15 -27 -33 -53 -18 -25 -53 -80 -77 -121 -24 -41 -61 -99 -82 -128
-22 -29 -55 -83 -75 -120 -20 -37 -49 -87 -66 -111 -45 -66 -69 -137 -74 -226
-5 -72 -2 -89 26 -170 18 -50 37 -108 43 -130 14 -51 19 -57 70 -72 34 -10 48
-9 85 5 l45 17 67 155 c80 185 90 203 131 255 18 22 56 90 85 151 29 61 69
137 90 170 21 32 46 78 57 103 10 24 42 69 71 101 28 31 74 93 100 138 43 73
95 132 117 132 4 0 19 24 34 53 14 30 44 68 66 86 47 38 50 51 11 51 -22 0
-46 -18 -117 -92 -116 -121 -174 -190 -215 -258 -18 -30 -72 -103 -119 -161
-83 -104 -337 -472 -393 -570 -28 -49 -59 -75 -77 -64 -17 10 -32 117 -28 204
3 82 5 90 47 156 23 39 78 117 121 175 42 58 85 122 95 143 9 20 21 37 26 37
24 0 104 91 135 152 59 117 40 169 -62 176 -51 3 -88 -5 -284 -67 -124 -39
-228 -71 -232 -71 -5 0 -8 9 -8 21 0 12 39 63 99 127 55 59 119 132 143 163
23 31 75 82 113 114 39 32 108 93 155 135 140 125 239 203 350 276 58 37 125
84 150 104 51 39 99 62 182 85 63 17 75 34 58 81 -28 74 -63 79 -235 34z"/>
<path d="M4533 1979 c-8 -8 -8 -21 2 -49 25 -71 48 -104 136 -196 83 -88 89
-98 114 -178 28 -87 50 -121 90 -136 28 -11 91 -2 104 14 14 17 31 112 31 172
0 30 7 71 15 91 21 50 6 62 -37 30 l-33 -26 -34 36 c-20 21 -72 53 -125 78
-62 29 -115 64 -166 109 -41 36 -77 66 -80 66 -4 0 -11 -5 -17 -11z"/>
</g>
</svg>
